<svg width="100" height="68" viewBox="0 0 100 68" fill="none" xmlns="http://www.w3.org/2000/svg">
<path fill-rule="evenodd" clip-rule="evenodd" d="M67.0963 21.6126C68.095 22.2617 69.2629 22.599 70.4524 22.5821C72.3254 22.6844 74.1123 21.7824 75.1478 20.2117V22.1506H78.6353V0H74.8547V8.90289C73.8438 7.61026 72.3747 6.96395 70.4473 6.96395C69.2597 6.94516 68.0928 7.27697 67.0912 7.91819C66.0701 8.59133 65.2603 9.54183 64.7561 10.6591C64.1675 11.9512 63.8773 13.3601 63.907 14.7806C63.8762 16.1948 64.1611 17.5979 64.741 18.8869C65.2428 19.9998 66.0468 20.948 67.0609 21.6228L67.0963 21.6126ZM71.3015 10.2378C70.2872 10.208 69.3192 10.664 68.6935 11.4662L68.7389 11.4611C68.0271 12.4135 67.6694 13.5861 67.7281 14.7755C67.6588 15.9578 67.9882 17.129 68.6631 18.1002C69.2787 18.9168 70.2519 19.3809 71.2712 19.3437C72.3082 19.3708 73.2986 18.911 73.95 18.1002C74.6798 17.1519 75.0474 15.9725 74.9861 14.7755C75.0538 13.5778 74.6856 12.3962 73.95 11.4509C73.2987 10.6607 72.3227 10.2136 71.3015 10.2378ZM50.7961 36.1547C51.4141 34.6698 52.8842 33.7253 54.4857 33.7843L54.4756 33.7894C55.2625 33.7991 56.0458 33.8978 56.8107 34.0838L56.1486 37.383C55.6147 37.2745 55.0708 37.2234 54.5262 37.2307C52.9593 37.2307 51.0488 38.0276 51.0488 41.4842V48.773H47.3086V34.0076H50.7961V36.1547ZM62.2694 62.4877C61.5851 62.4736 60.9353 62.7886 60.5206 63.3354L61.0513 63.843C61.3469 63.4531 61.8019 63.2181 62.2896 63.2034C62.795 63.2034 63.0882 63.442 63.0882 63.8683V64.0054L62.2037 64.1678C61.2889 64.3353 60.4701 64.6297 60.4701 65.5281C60.4701 66.3148 61.117 66.6245 61.8549 66.6245C62.3483 66.6639 62.8285 66.4523 63.1337 66.0611V66.4925H63.8969V63.8531C63.8969 63.0562 63.3409 62.503 62.2643 62.503L62.2694 62.4877ZM63.0933 64.9698C63.0807 65.2477 62.9551 65.5082 62.7459 65.6905C62.5366 65.8728 62.2621 65.9609 61.9864 65.9342C61.5618 65.9342 61.3091 65.7616 61.3091 65.4723C61.3091 65.0307 61.764 64.8936 62.4261 64.7515L63.0933 64.6145V64.9698ZM59.904 62.6298H58.8931L57.2707 64.3455V61.0208H56.4215V66.4925H57.2707V65.2743L57.8873 64.65L59.0649 66.5027H60.0101L58.4938 64.1069L59.904 62.6298ZM66.141 65.452C66.141 65.7565 66.2724 65.8631 66.5555 65.8631L66.5706 65.8682C66.7423 65.8635 66.9125 65.8345 67.0761 65.7819L67.1822 66.4519C66.9159 66.5466 66.6358 66.5963 66.3533 66.5991C65.58 66.5991 65.2969 66.2235 65.2969 65.5535V63.2745H64.5944V62.6349H65.2969V61.3812H66.141V62.6349H67.1165V63.2745H66.141V65.452ZM36.7197 62.5131C36.246 62.4876 35.7935 62.7129 35.5269 63.107V62.6349H34.7384V66.4925H35.5825V64.1221C35.5713 63.8845 35.6583 63.6529 35.8229 63.4818C35.9875 63.3108 36.215 63.2156 36.4519 63.2186C36.9573 63.2186 37.2504 63.5283 37.2504 64.1018V66.4925H38.0945V63.8328C38.1186 63.461 37.9787 63.0974 37.712 62.8384C37.4454 62.5794 37.0788 62.4512 36.7096 62.4877L36.7197 62.5131ZM40.3386 65.4317C40.3386 65.7362 40.4701 65.8428 40.7531 65.8428L40.7986 65.8479C40.9703 65.8432 41.1404 65.8142 41.304 65.7616L41.4102 66.4316C41.1422 66.5268 40.8604 66.5765 40.5762 66.5788C39.8029 66.5788 39.5198 66.2032 39.5198 65.5332V63.2542H38.8173V62.6146H39.5198V61.3609H40.3639V62.6146H41.3141V63.2542H40.3386V65.4317ZM69.5679 63.1679C69.8276 63.1532 70.0815 63.2498 70.2664 63.4336C70.4513 63.6174 70.5501 63.8712 70.5383 64.1323H68.5469C68.5738 63.5915 69.0186 63.1672 69.5577 63.1679H69.5679ZM68.8488 65.578C69.0685 65.7939 69.3668 65.9098 69.674 65.8986L69.6437 65.9037C70.1069 65.8915 70.5429 65.6809 70.8415 65.3251L71.347 65.8327C70.9216 66.3354 70.2955 66.6219 69.6386 66.6143C69.0966 66.6489 68.5665 66.4444 68.1868 66.0544C67.8071 65.6643 67.6156 65.1274 67.6624 64.584C67.6624 63.3709 68.4155 62.4979 69.5628 62.4979C70.7101 62.4979 71.3419 63.2339 71.3419 64.4064V64.7566H68.5115C68.5071 65.0652 68.6291 65.3622 68.8488 65.578ZM43.7402 63.178C44 63.1634 44.2538 63.2599 44.4387 63.4437C44.6237 63.6275 44.7225 63.8814 44.7106 64.1424H42.7344C42.7613 63.6025 43.2047 63.1787 43.7427 63.178H43.7402ZM43.0363 65.5882C43.256 65.8041 43.5543 65.9199 43.8615 65.9088L43.8312 65.9139C44.2944 65.9016 44.7304 65.6911 45.0291 65.3352L45.5345 65.8428C45.1091 66.3455 44.483 66.632 43.8261 66.6245C43.2841 66.659 42.754 66.4545 42.3743 66.0645C41.9947 65.6745 41.8032 65.1376 41.8499 64.5942C41.8499 63.3811 42.603 62.508 43.7503 62.508C44.8976 62.508 45.5294 63.244 45.5294 64.4165V64.7667H42.699C42.6947 65.0754 42.8166 65.3723 43.0363 65.5882ZM52.5651 64.0561H55.2135V63.2897H52.5651V61.767H55.4056V60.9955H51.6603V66.4925H55.4865V65.7311H52.5651V64.0561ZM47.3086 63.169V62.6248H46.4999V66.4925H47.344V64.5079C47.344 63.7668 47.6876 63.3303 48.2133 63.3303C48.3844 63.3325 48.5545 63.3581 48.7187 63.4064L48.8754 62.6755C48.6804 62.6056 48.4758 62.5663 48.2689 62.5588C47.8536 62.5451 47.4733 62.7879 47.3086 63.169ZM79.3076 62.4928C78.8338 62.4673 78.3814 62.6926 78.1147 63.0867V62.6146H77.3313V66.4925H78.1754V64.1221C78.1642 63.8845 78.2512 63.6529 78.4158 63.4818C78.5803 63.3108 78.8079 63.2156 79.0447 63.2186C79.5502 63.2186 79.8433 63.5283 79.8433 64.1018V66.4925H80.6874V63.8328C80.7114 63.461 80.5716 63.0974 80.3049 62.8384C80.0382 62.5794 79.6717 62.4512 79.3025 62.4877L79.3076 62.4928ZM73.0857 63.169V62.6095H72.277V66.4925H73.1261V64.5079C73.1261 63.7668 73.4698 63.3303 73.9955 63.3303C74.1666 63.3326 74.3366 63.3582 74.5009 63.4064L74.6525 62.6755C74.4575 62.6056 74.2529 62.5663 74.046 62.5588C73.6307 62.5451 73.2504 62.7879 73.0857 63.169ZM91.6502 63.1932V62.6146H90.8668V66.4925H91.7109V64.5079C91.7109 63.7668 92.0546 63.3303 92.5802 63.3303C92.7514 63.3326 92.9214 63.3582 93.0857 63.4064L93.2373 62.6755C93.0423 62.6056 92.8377 62.5663 92.6308 62.5588C92.2068 62.5448 91.8192 62.7982 91.6604 63.1932H91.6502ZM88.6772 65.6376C88.8501 65.461 88.9357 65.2162 88.9108 64.9698L88.8855 62.6146H89.7296V66.4925H88.9512V66.0357C88.6977 66.4172 88.2595 66.6324 87.8039 66.5991C86.8284 66.5991 86.4291 66.056 86.4291 65.3555V62.6045H87.2985V65.1423C87.2728 65.342 87.3393 65.5426 87.4791 65.687C87.6189 65.8313 87.8167 65.9037 88.0162 65.8834C88.2619 65.9043 88.5042 65.8142 88.6772 65.6376ZM95.5572 65.7108C94.9254 65.7108 94.5464 65.2032 94.5464 64.4571C94.5464 63.711 94.9305 63.2186 95.5572 63.2186C96.184 63.2186 96.5681 63.7262 96.5681 64.4571C96.5681 65.188 96.1536 65.7108 95.5572 65.7108ZM95.3803 62.4979C95.8674 62.4657 96.3342 62.6982 96.6035 63.107V62.6248H97.3869V66.3555C97.3869 67.4214 96.6288 68 95.5572 68C94.9143 68.0004 94.2866 67.8039 93.7579 67.4366L94.1723 66.8173C94.5736 67.1101 95.0517 67.2778 95.5471 67.2995C95.824 67.3326 96.1007 67.2364 96.2979 67.0383C96.4951 66.8403 96.5909 66.5625 96.558 66.2844V65.8834C96.2821 66.2532 95.8397 66.4591 95.3803 66.4316C94.3947 66.4316 93.6871 65.6144 93.6871 64.4622C93.6871 63.31 94.3947 62.4979 95.3803 62.4979ZM96.371 0L96.7147 7.37001H99.6513L100 0H96.371ZM82.5878 64.5688C82.5878 65.4012 83.0579 65.8733 83.6644 65.8733C84.2608 65.8733 84.6753 65.3809 84.6753 64.5688C84.6753 63.7567 84.2861 63.2491 83.6644 63.2491C83.0427 63.2491 82.5878 63.7364 82.5878 64.5688ZM83.8413 62.5182C83.3648 62.49 82.9064 62.7058 82.6232 63.0917V61.0208H81.7791V66.4925H82.5626V65.9849C82.8392 66.4127 83.3243 66.6572 83.8312 66.6245C84.8168 66.6245 85.5446 65.8276 85.5446 64.5942C85.5446 63.3608 84.8218 62.5639 83.8362 62.5639L83.8413 62.5182ZM76.2092 62.0004H75.3652V61.1274H76.2092V62.0004ZM88.0516 49.2349C90.0093 49.2349 91.5508 48.7916 92.6763 47.905C93.7709 47.0813 94.4001 45.7759 94.3644 44.4028C94.3964 43.6143 94.1959 42.8339 93.7882 42.1593C93.3362 41.5176 92.7123 41.0178 91.9889 40.7178C90.918 40.2655 89.8035 39.9253 88.6631 39.7026C87.6253 39.4725 86.9059 39.3033 86.5049 39.195C86.1686 39.1101 85.8514 38.9619 85.5699 38.7585C85.3496 38.5844 85.2272 38.3138 85.2413 38.0327C85.2417 37.5677 85.5068 37.1438 85.9237 36.9414C86.4765 36.6468 87.0979 36.5066 87.723 36.5353C88.4548 36.5251 89.1824 36.6472 89.8711 36.8957C90.689 37.2402 91.4519 37.7037 92.1355 38.2712L94.1572 35.8146C92.4182 34.2352 90.1315 33.4042 87.7887 33.5C86.6572 33.4739 85.5328 33.6866 84.4883 34.1244C83.6452 34.4742 82.9167 35.0546 82.3857 35.7994C81.9108 36.4823 81.6583 37.2962 81.6629 38.1291C81.6368 38.8838 81.8112 39.6319 82.1683 40.2965C82.5655 40.9166 83.1373 41.4042 83.811 41.6974C84.8639 42.1606 85.9662 42.5012 87.0963 42.7125C88.1341 42.9426 88.8552 43.1118 89.2595 43.2201C89.6354 43.3176 89.9878 43.4902 90.2957 43.7277C90.5783 43.9417 90.7388 44.2811 90.7253 44.6363C90.723 45.1387 90.4257 45.5925 89.9671 45.7935C89.3968 46.0849 88.7617 46.2247 88.1223 46.1996C87.3037 46.2124 86.4909 46.0605 85.7316 45.7529C84.7735 45.2931 83.8824 44.7039 83.0831 44.0018L80.9199 46.4331C81.9097 47.3581 83.0566 48.0973 84.3063 48.6157C85.5066 49.0501 86.7759 49.26 88.0516 49.2349ZM76.2194 66.4925H75.3753V62.6146H76.2194V66.4925ZM31.9939 63.1729C32.2537 63.1583 32.5075 63.2549 32.6925 63.4387C32.8774 63.6224 32.9762 63.8763 32.9644 64.1373H30.973C30.9999 63.5966 31.4447 63.1723 31.9838 63.1729H31.9939ZM31.2749 65.5831C31.4946 65.799 31.7929 65.9149 32.1001 65.9037L32.0697 65.9088C32.533 65.8966 32.9689 65.686 33.2676 65.3301L33.7731 65.8377C33.3477 66.3404 32.7216 66.6269 32.0647 66.6194C31.5226 66.6539 30.9925 66.4495 30.6129 66.0594C30.2332 65.6694 30.0417 65.1325 30.0884 64.5891C30.0884 63.376 30.8415 62.5029 31.9889 62.5029C33.1362 62.5029 33.768 63.2389 33.768 64.4114V64.7617H30.9376C30.9332 65.0703 31.0551 65.3672 31.2749 65.5831ZM70.1491 37.3069C71.5087 36.1675 73.485 36.1675 74.8446 37.3069C75.4518 37.9441 75.8013 38.7854 75.8251 39.6671H68.9816C69.1348 38.7739 69.5584 37.9498 70.1946 37.3069H70.1491ZM75.163 45.626C75.9744 45.1809 76.7339 44.6463 77.4273 44.0322L79.5249 46.3417C78.6443 47.2926 77.582 48.0556 76.4013 48.5852C75.3079 49.0277 74.1381 49.2485 72.9593 49.2349C71.5308 49.2694 70.117 48.9393 68.8501 48.2756C67.7068 47.6575 66.7739 46.71 66.1713 45.555C65.5266 44.2848 65.2054 42.874 65.2363 41.4487C65.2127 40.032 65.5191 38.6293 66.1309 37.3525C66.6963 36.1794 67.5859 35.1945 68.6935 34.5152C69.889 33.8132 71.2565 33.4616 72.6409 33.5C74.8513 33.4865 76.5513 34.1311 77.7407 35.4339C78.9302 36.7367 79.5249 38.5453 79.5249 40.8599C79.5249 41.4216 79.5064 41.914 79.4693 42.3369H68.8956C69.0119 43.3571 69.4637 44.3091 70.1794 45.0423C70.9612 45.7517 71.9933 46.1173 73.0452 46.0575C73.7748 46.0788 74.4994 45.9311 75.163 45.626ZM16.8309 44.4028C16.8629 43.6143 16.6624 42.8339 16.2547 42.1593C15.8034 41.5158 15.1795 41.0141 14.4554 40.7127C13.3845 40.2604 12.27 39.9203 11.1296 39.6976C10.0918 39.4674 9.37073 39.2983 8.96639 39.19C8.63008 39.105 8.31282 38.9569 8.03134 38.7535C7.80921 38.5804 7.68477 38.3097 7.69775 38.0276C7.70481 37.5711 7.96656 37.1572 8.37503 36.9566C8.92784 36.6621 9.54922 36.5218 10.1744 36.5506C10.9061 36.5403 11.6338 36.6624 12.3225 36.911C13.1386 37.2559 13.8998 37.7194 14.5818 38.2865L16.6035 35.8298C15.7235 35.0516 14.7141 34.4348 13.6214 34.0076C12.5398 33.6472 11.4047 33.4755 10.2654 33.5C9.13381 33.4739 8.0094 33.6866 6.96487 34.1244C6.11564 34.4732 5.38162 35.0555 4.84711 35.8044C4.37223 36.4874 4.11973 37.3013 4.12434 38.1342C4.098 38.8889 4.27247 39.6371 4.62977 40.3016C5.02699 40.9217 5.59874 41.4093 6.27243 41.7025C7.32532 42.1658 8.42762 42.5064 9.55774 42.7176C10.5956 42.9477 11.315 43.1169 11.7159 43.2252C12.0919 43.3226 12.4443 43.4952 12.7521 43.7328C13.0366 43.9457 13.199 44.2852 13.1868 44.6413C13.1908 45.1355 12.9088 45.5871 12.464 45.7986C11.8907 46.0854 11.2538 46.2199 10.6141 46.1895C9.7955 46.2024 8.98261 46.0505 8.2234 45.7428C7.26053 45.2873 6.36432 44.7015 5.55977 44.0018L3.40662 46.428C4.39646 47.3529 5.5434 48.0922 6.79302 48.6106C7.98819 49.0449 9.25228 49.2565 10.5231 49.2349C12.4808 49.2349 14.0224 48.7916 15.1478 47.9051C16.2406 47.0803 16.8678 45.775 16.8309 44.4028ZM62.4311 48.773H58.6859V34.0076H62.4311V48.773ZM8.72378 64.9698C8.74873 65.2162 8.66309 65.461 8.49015 65.6376C8.31722 65.8142 8.07494 65.9043 7.82917 65.8834C7.62967 65.9037 7.43188 65.8313 7.29207 65.687C7.15227 65.5426 7.08575 65.342 7.11145 65.1423V62.6045H6.27243V65.3555C6.27243 66.056 6.67172 66.5991 7.64721 66.5991C8.10276 66.6324 8.54098 66.4172 8.79454 66.0357V66.4925H9.57291V62.6146H8.72378V64.9698ZM0.935051 63.7567C0.935051 64.9952 1.62244 65.8225 2.65858 65.8225C3.69977 65.8225 4.37705 64.985 4.37705 63.7567C4.37705 62.5283 3.69977 61.6959 2.65858 61.6959C1.61739 61.6959 0.935051 62.5182 0.935051 63.7567ZM2.65858 60.8939C1.01087 60.9092 0 62.1223 0 63.7617C0 65.4012 1.01087 66.6295 2.65353 66.6295C4.29618 66.6295 5.302 65.4012 5.302 63.7617C5.302 62.1223 4.30124 60.9092 2.65353 60.9092L2.65858 60.8939ZM52.4842 10.9992C51.9155 11.6091 51.6149 12.4231 51.6502 13.2579L51.6351 22.1506H47.8898V7.37001H51.3773V9.04501C51.8463 8.36142 52.4813 7.80936 53.2221 7.44107C54.0306 7.05204 54.9187 6.85906 55.815 6.87766C57.4863 6.87766 58.7836 7.3497 59.7068 8.2938C60.6521 9.29795 61.1518 10.644 61.0917 12.0245V22.1506H57.3465V13.1716C57.402 12.3561 57.1493 11.5496 56.6389 10.9129C56.1101 10.3697 55.3721 10.0844 54.6171 10.1312C53.816 10.1048 53.041 10.4201 52.4842 10.9992ZM24.5236 14.8618C24.5236 11.4052 26.4342 10.6083 28.001 10.6083C28.5457 10.601 29.0896 10.6521 29.6235 10.7606L30.2856 7.46137C29.5207 7.27544 28.7374 7.17669 27.9505 7.16698C26.349 7.10803 24.8789 8.05247 24.2608 9.53736V7.37001H20.7733V22.1506H24.5186L24.5236 14.8618ZM21.7892 48.0929C21.1153 47.4093 20.7784 46.3637 20.7784 44.956V36.8704H18.1552V34.0076H20.7784V29.5663H24.5438V34.0076H28.0819V36.8653H24.5438V44.4789C24.5023 44.8641 24.6275 45.2486 24.8875 45.5347C25.2141 45.766 25.6115 45.8738 26.0096 45.8392C26.6325 45.8256 27.2517 45.7388 27.8544 45.5804L28.2891 48.5598C27.2207 48.9216 26.1009 49.1067 24.9735 49.108C23.5246 49.1148 22.4631 48.7764 21.7892 48.0929ZM7.91509 11.4205C8.56565 10.5943 9.56567 10.1242 10.6141 10.1515C11.6331 10.1152 12.606 10.5791 13.2221 11.3951C13.9008 12.3739 14.2286 13.5549 14.1521 14.7451C14.2108 15.9345 13.8532 17.1071 13.1413 18.0596C12.5231 18.8516 11.5706 19.3064 10.5686 19.2879C9.5474 19.3121 8.57145 18.8651 7.92014 18.0748C7.18335 17.1282 6.81502 15.9446 6.884 14.7451C6.82268 13.5481 7.19025 12.3687 7.92014 11.4205H7.91509ZM11.4278 22.5567C9.35557 22.5567 7.80052 21.7953 6.7627 20.2726L6.76775 22.1506H3.28026V0H7.02047V8.94857C8.0963 7.6084 9.74621 6.86676 11.4582 6.9538C12.6477 6.93683 13.8155 7.27419 14.8143 7.92327C15.8283 8.59804 16.6324 9.54626 17.1342 10.6591C17.7111 11.9419 17.996 13.3378 17.9682 14.7451C17.9981 16.1656 17.7078 17.5746 17.119 18.8666C16.614 19.982 15.8043 20.9307 14.7839 21.6024C13.7824 22.2437 12.6154 22.5755 11.4278 22.5567ZM40.5863 16.1358C40.5863 18.491 38.8476 19.6331 36.6692 19.6331C35.1529 19.6331 34.42 19.0037 34.42 18.1611C34.42 16.8972 35.6331 16.3084 38.1097 15.7856L40.5863 15.278V16.1358ZM30.7607 18.3996C30.7607 15.1258 33.1918 13.9634 37.1291 13.197C39.7928 12.6894 40.5813 12.5727 40.5813 12.5727V12.395C40.5813 11.1565 40.0303 9.97387 37.6801 9.97387C35.8706 9.97387 34.415 11.0093 33.2323 12.3696L30.8719 10.2023C32.2517 8.49683 34.2734 6.87766 38.0288 6.87766C42.0167 6.87766 44.1547 9.06024 44.1547 12.3595V22.1151H40.7834V20.5924C40.3285 21.237 39.0195 22.6227 36.0324 22.6227C33.399 22.6227 30.7607 21.5212 30.7607 18.3996ZM89.9671 19.1712C89.3968 19.4626 88.7617 19.6024 88.1223 19.5772C87.3037 19.59 86.4909 19.4381 85.7316 19.1306C84.7733 18.6711 83.8822 18.0819 83.0831 17.3794L80.9351 19.7955C81.9248 20.7206 83.0717 21.4598 84.3215 21.9781C85.5166 22.4124 86.7807 22.624 88.0516 22.6024C90.0093 22.6024 91.5508 22.1591 92.6763 21.2725C93.7709 20.4488 94.4001 19.1434 94.3644 17.7702C94.3961 16.9818 94.1956 16.2015 93.7882 15.5268C93.3348 14.8888 92.711 14.3926 91.9889 14.0954C90.918 13.6431 89.8035 13.3029 88.6631 13.0802C87.6253 12.8501 86.9059 12.6809 86.5049 12.5727C86.169 12.4892 85.8517 12.3429 85.5699 12.1412C85.3496 11.9671 85.2272 11.6965 85.2413 11.4154C85.2398 10.9485 85.5051 10.5222 85.9237 10.319C86.4765 10.0245 87.0979 9.88423 87.723 9.91297C88.4548 9.90262 89.1824 10.0247 89.8711 10.2733C90.6816 10.6279 91.436 11.0999 92.1102 11.6743L94.1319 9.21251C92.4005 7.64066 90.1262 6.81013 87.7938 6.89796C86.6622 6.87183 85.5378 7.08452 84.4933 7.52228C83.6509 7.86579 82.9209 8.43892 82.3856 9.17698C81.9126 9.86079 81.6602 10.6741 81.6629 11.5068C81.6368 12.2615 81.8112 13.0095 82.1683 13.6741C82.5655 14.2942 83.1373 14.7818 83.811 15.075C84.8639 15.5383 85.9662 15.8789 87.0963 16.0902C88.1341 16.3203 88.8552 16.4895 89.2595 16.5977C89.6354 16.6951 89.9879 16.8678 90.2957 17.1053C90.5798 17.3204 90.7404 17.662 90.7253 18.019C90.721 18.5196 90.4241 18.9709 89.9671 19.1712ZM21.2029 65.457C21.2029 65.7616 21.3343 65.8682 21.6174 65.8682L21.6275 65.858C21.7992 65.8534 21.9693 65.8243 22.1329 65.7717L22.2391 66.4417C21.9768 66.5405 21.7002 66.5953 21.4203 66.6042C20.652 66.6042 20.369 66.2286 20.369 65.5586V63.2795H19.6664V62.64H20.3639V61.3863H21.2282V62.64H22.1885V63.2795H21.2029V65.457ZM27.445 65.858C26.4089 65.858 25.7215 65.0256 25.7215 63.777C25.7215 62.5283 26.3887 61.7111 27.4754 61.7111C28.0303 61.7168 28.56 61.9453 28.9462 62.3456L29.4769 61.7111C28.9448 61.1898 28.2288 60.9015 27.4855 60.9092C25.7771 60.9092 24.7662 62.1223 24.7662 63.7516C24.7662 65.3809 25.7771 66.6245 27.4349 66.6245C28.2369 66.6293 29.0031 66.2916 29.5426 65.6956L28.9967 65.0764C28.5946 65.5316 28.0252 65.8028 27.4198 65.8276L27.445 65.858ZM18.0096 63.4336C17.8247 63.2498 17.5709 63.1532 17.3111 63.1679H17.306C16.7669 63.1672 16.3221 63.5915 16.2952 64.1323H18.2815C18.2934 63.8712 18.1946 63.6174 18.0096 63.4336ZM17.4223 65.8986C17.1151 65.9098 16.8168 65.7939 16.5971 65.578C16.3774 65.3622 16.2554 65.0652 16.2598 64.7566H19.0902V64.4064C19.0902 63.2339 18.4584 62.4979 17.3111 62.4979C16.1638 62.4979 15.4107 63.3709 15.4107 64.584C15.3639 65.1274 15.5554 65.6643 15.9351 66.0544C16.3148 66.4444 16.8449 66.6489 17.3869 66.6143C18.0438 66.6219 18.6699 66.3354 19.0953 65.8327L18.5898 65.3251C18.2912 65.6809 17.8552 65.8915 17.392 65.9037L17.4223 65.8986ZM14.516 66.4925H13.672V61.0208H14.516V66.4925ZM12.2871 65.8428C12.004 65.8428 11.8726 65.7362 11.8726 65.4317V63.2542H12.8481V62.6146H11.8726V61.3609H11.0235V62.6146H10.326V63.2542H11.0235V65.5332C11.0235 66.2032 11.3065 66.5788 12.0799 66.5788C12.3624 66.576 12.6425 66.5263 12.9088 66.4316L12.8026 65.7616C12.639 65.8142 12.4689 65.8432 12.2972 65.8479L12.2871 65.8428ZM36.8562 46.0516C37.9271 46.0516 38.9458 45.5875 39.6513 44.7784C40.3945 43.8012 40.7672 42.5903 40.7026 41.3624C40.7622 40.1398 40.3899 38.9353 39.6513 37.9616C38.9513 37.1433 37.9305 36.6724 36.8562 36.6724C35.7819 36.6724 34.7612 37.1433 34.0612 37.9616C33.3225 38.9353 32.9502 40.1398 33.0099 41.3624C32.9452 42.5903 33.3179 43.8012 34.0612 44.7784C34.7666 45.5875 35.7853 46.0516 36.8562 46.0516ZM40.8188 34.4797C39.6112 33.8113 38.2499 33.4734 36.8714 33.5C35.4876 33.4761 34.1217 33.8155 32.9088 34.4847C31.7557 35.1305 30.8104 36.0938 30.1845 37.2612C28.878 39.8433 28.878 42.8967 30.1845 45.4788C30.8104 46.6462 31.7557 47.6095 32.9088 48.2553C34.1222 48.9227 35.4881 49.2604 36.8714 49.2349C38.2504 49.26 39.6117 48.9204 40.8188 48.2502C41.9654 47.601 42.9049 46.6382 43.5279 45.4738C44.8344 42.8917 44.8344 39.8382 43.5279 37.2561C42.9049 36.0917 41.9654 35.1288 40.8188 34.4797ZM58.6859 28.0943H62.4311V31.7793H58.6859V28.0943Z" fill="black"/>
</svg>
