<svg width="189" height="22" viewBox="0 0 189 22" fill="none" xmlns="http://www.w3.org/2000/svg">
<path fill-rule="evenodd" clip-rule="evenodd" d="M150.381 6.87009C150.989 6.87009 151.709 6.94609 152.619 7.15309L151.983 10.3021C151.983 10.3021 151.378 10.1571 150.429 10.1571C148.923 10.1571 147.094 10.9191 147.094 14.2181V21.1801H143.502V7.06309H146.845V9.13509C147.582 7.62509 148.76 6.87009 150.381 6.87009Z" fill="white"/>
<path fill-rule="evenodd" clip-rule="evenodd" d="M107.979 6.59369C109.194 6.59369 110.267 6.75969 111.197 7.09069C112.127 7.42269 113.08 7.99369 114.056 8.80369L112.123 11.1517C111.294 10.5067 110.571 10.0697 109.954 9.83969C109.337 9.60969 108.651 9.49369 107.896 9.49369C107.178 9.49369 106.602 9.62269 106.17 9.88069C105.737 10.1387 105.52 10.4797 105.52 10.9027C105.52 11.1977 105.626 11.4277 105.838 11.5937C106.05 11.7597 106.349 11.8977 106.736 12.0077C107.123 12.1187 107.813 12.2847 108.808 12.5057C110.152 12.7997 111.216 13.1267 111.998 13.4857C112.781 13.8447 113.357 14.3057 113.725 14.8667C114.093 15.4287 114.277 16.1427 114.277 17.0077C114.277 18.3897 113.739 19.5037 112.661 20.3507C111.584 21.1977 110.106 21.6217 108.228 21.6217C106.883 21.6217 105.691 21.4237 104.65 21.0277C103.61 20.6317 102.528 19.9367 101.404 18.9417L103.476 16.6217C104.489 17.4497 105.336 18.0067 106.018 18.2927C106.699 18.5777 107.463 18.7207 108.31 18.7207C109.029 18.7207 109.618 18.5917 110.078 18.3337C110.539 18.0757 110.769 17.7077 110.769 17.2287C110.769 16.8607 110.631 16.5707 110.355 16.3587C110.078 16.1467 109.747 15.9907 109.36 15.8897C108.974 15.7877 108.283 15.6267 107.288 15.4057C105.926 15.1117 104.876 14.7847 104.139 14.4257C103.403 14.0657 102.878 13.6197 102.565 13.0857C102.252 12.5517 102.095 11.8607 102.095 11.0137C102.095 10.2027 102.325 9.46169 102.786 8.78969C103.246 8.11769 103.923 7.58369 104.816 7.18769C105.709 6.79169 106.764 6.59369 107.979 6.59369Z" fill="white"/>
<path fill-rule="evenodd" clip-rule="evenodd" d="M125.244 20.9863C124.194 21.3363 123.135 21.5113 122.067 21.5113C120.668 21.5113 119.65 21.1843 119.015 20.5303C118.379 19.8763 118.062 18.8773 118.062 17.5333V9.79829H115.548V7.06329H118.062V2.84229H121.653V7.06329H125.023V9.79829H121.653V17.0913C121.653 17.5703 121.763 17.9063 121.984 18.0993C122.205 18.2933 122.564 18.3893 123.062 18.3893C123.559 18.3893 124.148 18.3063 124.83 18.1413L125.244 20.9863Z" fill="white"/>
<path fill-rule="evenodd" clip-rule="evenodd" d="M133.492 9.63229C132.369 9.63229 131.471 10.0423 130.799 10.8613C130.126 11.6813 129.79 12.7633 129.79 14.1073C129.79 15.4703 130.126 16.5573 130.799 17.3673C131.471 18.1773 132.369 18.5823 133.492 18.5823C134.597 18.5823 135.486 18.1773 136.158 17.3673C136.83 16.5573 137.166 15.4703 137.166 14.1073C137.166 12.7633 136.83 11.6813 136.158 10.8613C135.486 10.0423 134.597 9.63229 133.492 9.63229ZM133.492 6.59329C134.91 6.59329 136.172 6.90629 137.277 7.53329C138.382 8.15929 139.247 9.04329 139.873 10.1843C140.499 11.3263 140.812 12.6343 140.812 14.1073C140.812 15.5803 140.499 16.8883 139.873 18.0303C139.247 19.1723 138.382 20.0563 137.277 20.6823C136.172 21.3083 134.91 21.6213 133.492 21.6213C132.074 21.6213 130.808 21.3083 129.694 20.6823C128.579 20.0563 127.709 19.1723 127.083 18.0303C126.457 16.8883 126.144 15.5803 126.144 14.1073C126.144 12.6343 126.457 11.3263 127.083 10.1843C127.709 9.04329 128.579 8.15929 129.694 7.53329C130.808 6.90629 132.074 6.59329 133.492 6.59329Z" fill="white"/>
<path fill-rule="evenodd" clip-rule="evenodd" d="M154.41 4.9522H158.001V1.4342H154.41V4.9522ZM154.41 21.1792H158.001V7.0632H154.41V21.1792Z" fill="white"/>
<path fill-rule="evenodd" clip-rule="evenodd" d="M167.681 9.4116C166.759 9.4116 166.014 9.6826 165.443 10.2266C164.872 10.7696 164.486 11.5206 164.283 12.4776H170.884C170.812 11.5206 170.498 10.7696 169.946 10.2266C169.394 9.6826 168.639 9.4116 167.681 9.4116ZM168.178 18.5826C168.97 18.5826 169.647 18.4446 170.208 18.1686C170.77 17.8926 171.493 17.3856 172.376 16.6496L174.394 18.8596C173.399 19.8716 172.4 20.5856 171.396 20.9996C170.393 21.4146 169.291 21.6216 168.095 21.6216C166.584 21.6216 165.273 21.3176 164.159 20.7096C163.044 20.1026 162.188 19.2366 161.589 18.1136C160.991 16.9896 160.692 15.6826 160.692 14.1906C160.692 12.7356 160.977 11.4326 161.547 10.2816C162.119 9.1306 162.939 8.2286 164.006 7.5746C165.075 6.9206 166.336 6.5936 167.79 6.5936C169.909 6.5936 171.538 7.2156 172.681 8.4586C173.823 9.7016 174.394 11.4286 174.394 13.6386C174.394 14.1726 174.374 14.6416 174.337 15.0466H164.2C164.366 16.1336 164.776 16.9946 165.43 17.6296C166.082 18.2656 166.999 18.5826 168.178 18.5826Z" fill="white"/>
<path fill-rule="evenodd" clip-rule="evenodd" d="M182.316 6.59369C183.531 6.59369 184.604 6.75969 185.534 7.09069C186.464 7.42269 187.418 7.99369 188.393 8.80369L186.461 11.1517C185.631 10.5067 184.908 10.0697 184.291 9.83969C183.674 9.60969 182.988 9.49369 182.233 9.49369C181.515 9.49369 180.939 9.62269 180.507 9.88069C180.074 10.1387 179.858 10.4797 179.858 10.9027C179.858 11.1977 179.963 11.4277 180.175 11.5937C180.387 11.7597 180.686 11.8977 181.073 12.0077C181.461 12.1187 182.15 12.2847 183.145 12.5057C184.489 12.7997 185.553 13.1267 186.336 13.4857C187.118 13.8447 187.694 14.3057 188.062 14.8667C188.43 15.4287 188.614 16.1427 188.614 17.0077C188.614 18.3897 188.076 19.5037 186.998 20.3507C185.921 21.1977 184.443 21.6217 182.565 21.6217C181.22 21.6217 180.028 21.4237 178.987 21.0277C177.947 20.6317 176.865 19.9367 175.741 18.9417L177.813 16.6217C178.826 17.4497 179.673 18.0067 180.355 18.2927C181.036 18.5777 181.8 18.7207 182.648 18.7207C183.366 18.7207 183.955 18.5917 184.415 18.3337C184.877 18.0757 185.106 17.7077 185.106 17.2287C185.106 16.8607 184.968 16.5707 184.692 16.3587C184.415 16.1467 184.084 15.9907 183.697 15.8897C183.311 15.7877 182.62 15.6267 181.625 15.4057C180.263 15.1117 179.213 14.7847 178.476 14.4257C177.739 14.0657 177.215 13.6197 176.902 13.0857C176.588 12.5517 176.432 11.8607 176.432 11.0137C176.432 10.2027 176.662 9.46169 177.123 8.78969C177.584 8.11769 178.26 7.58369 179.153 7.18769C180.046 6.79169 181.101 6.59369 182.316 6.59369Z" fill="white"/>
<path fill-rule="evenodd" clip-rule="evenodd" d="M6.98882 18.417C8.01982 18.417 8.85382 18.026 9.48882 17.243C10.1238 16.46 10.4418 15.406 10.4418 14.08C10.4418 12.754 10.1338 11.695 9.51682 10.903C8.89982 10.111 8.06682 9.715 7.01682 9.715C5.96682 9.715 5.11082 10.111 4.44682 10.903C3.78482 11.695 3.45282 12.754 3.45282 14.08C3.45282 15.424 3.78482 16.483 4.44682 17.257C5.11082 18.03 5.95782 18.417 6.98882 18.417ZM7.84582 6.621C9.04182 6.621 10.1148 6.93 11.0638 7.547C12.0118 8.164 12.7528 9.034 13.2878 10.157C13.8218 11.281 14.0888 12.588 14.0888 14.08C14.0888 15.572 13.8168 16.884 13.2738 18.016C12.7298 19.149 11.9838 20.019 11.0358 20.627C10.0878 21.235 9.01482 21.539 7.81782 21.539C5.82882 21.539 4.33682 20.811 3.34282 19.356V21.152H-0.000183105V0H3.59082V8.527C4.60382 7.257 6.02182 6.621 7.84582 6.621Z" fill="white"/>
<path fill-rule="evenodd" clip-rule="evenodd" d="M23.6582 6.84229C24.2662 6.84229 24.9862 6.91829 25.8962 7.12529L25.2602 10.2743C25.2602 10.2743 24.6552 10.1293 23.7062 10.1293C22.2002 10.1293 20.3712 10.8913 20.3712 14.1903V21.1523H16.7792V7.03529H20.1222V9.10729C20.8592 7.59729 22.0372 6.84229 23.6582 6.84229Z" fill="white"/>
<path fill-rule="evenodd" clip-rule="evenodd" d="M50.3872 6.56589C51.9892 6.56589 53.2322 7.01689 54.1162 7.91989C55.0002 8.82189 55.4422 10.0099 55.4422 11.4829V21.1519H51.8512V12.5609C51.8512 11.6209 51.6252 10.9029 51.1742 10.4059C50.7232 9.90889 50.0742 9.65989 49.2272 9.65989C48.3982 9.65989 47.7172 9.93589 47.1832 10.4889C46.6482 11.0409 46.3812 11.7599 46.3812 12.6439V21.1519H42.7902V7.03589H46.1332V8.63789C46.5932 7.97489 47.1832 7.46389 47.9012 7.10489C48.6192 6.74589 49.4482 6.56589 50.3872 6.56589Z" fill="white"/>
<path fill-rule="evenodd" clip-rule="evenodd" d="M65.2051 18.4721C66.2551 18.4721 67.1111 18.0761 67.7741 17.2841C68.4371 16.4921 68.7681 15.4331 68.7681 14.1071C68.7681 12.7631 68.4371 11.7041 67.7741 10.9301C67.1111 10.1571 66.2641 9.77009 65.2331 9.77009C64.2011 9.77009 63.3681 10.1621 62.7331 10.9441C62.0971 11.7271 61.7791 12.7811 61.7791 14.1071C61.7791 15.4331 62.0881 16.4921 62.7051 17.2841C63.3221 18.0761 64.1551 18.4721 65.2051 18.4721ZM72.2221 9.15527e-05V21.1521H68.8791V19.3011C67.8661 20.8111 66.3651 21.5661 64.3761 21.5661C63.1791 21.5661 62.1061 21.2571 61.1581 20.6411C60.2101 20.0241 59.4681 19.1541 58.9341 18.0301C58.4001 16.9071 58.1331 15.5991 58.1331 14.1071C58.1331 12.6161 58.4051 11.3041 58.9481 10.1711C59.4911 9.03809 60.2371 8.16809 61.1861 7.56009C62.1341 6.95209 63.2071 6.64909 64.4041 6.64909C66.2451 6.64909 67.6541 7.26609 68.6301 8.50009V9.15527e-05H72.2221Z" fill="white"/>
<path fill-rule="evenodd" clip-rule="evenodd" d="M81.0342 6.56589C82.2492 6.56589 83.3222 6.73189 84.2522 7.06289C85.1822 7.39489 86.1352 7.96589 87.1112 8.77589L85.1782 11.1239C84.3492 10.4799 83.6262 10.0419 83.0092 9.81189C82.3922 9.58189 81.7062 9.46689 80.9512 9.46689C80.2332 9.46689 79.6572 9.59589 79.2252 9.85289C78.7922 10.1109 78.5752 10.4519 78.5752 10.8759C78.5752 11.1699 78.6812 11.3999 78.8932 11.5659C79.1052 11.7319 79.4042 11.8699 79.7912 11.9809C80.1782 12.0909 80.8682 12.2569 81.8632 12.4779C83.2072 12.7719 84.2712 13.0989 85.0532 13.4579C85.8362 13.8169 86.4122 14.2779 86.7802 14.8399C87.1482 15.4009 87.3322 16.1149 87.3322 16.9809C87.3322 18.3619 86.7942 19.4759 85.7162 20.3229C84.6392 21.1699 83.1612 21.5939 81.2832 21.5939C79.9382 21.5939 78.7462 21.3959 77.7052 20.9999C76.6652 20.6039 75.5832 19.9089 74.4592 18.9139L76.5312 16.5939C77.5442 17.4229 78.3912 17.9799 79.0732 18.2649C79.7542 18.5509 80.5182 18.6929 81.3652 18.6929C82.0842 18.6929 82.6732 18.5649 83.1332 18.3059C83.5942 18.0489 83.8242 17.6809 83.8242 17.2019C83.8242 16.8329 83.6862 16.5429 83.4102 16.3309C83.1332 16.1189 82.8022 15.9629 82.4152 15.8619C82.0292 15.7609 81.3382 15.5989 80.3432 15.3779C78.9812 15.0839 77.9312 14.7569 77.1942 14.3979C76.4572 14.0389 75.9332 13.5919 75.6202 13.0579C75.3062 12.5239 75.1502 11.8329 75.1502 10.9859C75.1502 10.1759 75.3802 9.43389 75.8412 8.76189C76.3012 8.08989 76.9782 7.55589 77.8712 7.15989C78.7642 6.76389 79.8182 6.56589 81.0342 6.56589Z" fill="white"/>
<path fill-rule="evenodd" clip-rule="evenodd" d="M92.7447 0L92.4127 7.035H89.5957L89.2637 0H92.7447Z" fill="white"/>
<path fill-rule="evenodd" clip-rule="evenodd" d="M33.3252 6.56879C29.7222 6.56879 27.7852 8.11379 26.4642 9.74279L28.7302 11.8148C29.8622 10.5178 31.2602 9.52579 32.9942 9.52579C35.2462 9.52579 35.7752 10.6548 35.7752 11.8378V12.0098C35.7752 12.0098 35.0122 12.1238 32.4602 12.6198C28.6822 13.3518 26.3552 14.4588 26.3552 17.5878C26.3552 20.5668 28.8872 21.6208 31.4122 21.6208C34.2782 21.6208 35.5292 20.2978 35.9672 19.6878V21.1538H39.1992V11.8038C39.1992 8.65179 37.1472 6.56879 33.3252 6.56879ZM35.7752 15.4088C35.7752 17.6568 34.1092 18.7488 32.0172 18.7488C30.5582 18.7488 29.8632 18.1488 29.8632 17.3418C29.8632 16.1348 31.0242 15.5708 33.4002 15.0738L35.7752 14.5768V15.4088Z" fill="white"/>
</svg>
