<svg width="90" height="25" viewBox="0 0 90 25" fill="none" xmlns="http://www.w3.org/2000/svg">
<path d="M5.0191 9.87524H10.0382V14.8136H5.0191V9.87524Z" fill="white"/>
<rect y="19.5359" width="5.01911" height="4.93839" fill="white"/>
<path d="M10.0367 14.8137H15.0558V19.752H10.0367V14.8137Z" fill="white"/>
<path fill-rule="evenodd" clip-rule="evenodd" d="M35.2567 14.2152C35.4368 14.2576 35.6416 14.2943 35.871 14.3256C36.1359 14.3639 36.4033 14.3836 36.6711 14.3845C36.9936 14.3845 37.2183 14.2984 37.3453 14.1261C37.4798 13.932 37.5471 13.7004 37.5373 13.4657V11.0086C37.552 10.7682 37.4844 10.5298 37.3453 10.3316C37.2173 10.1704 36.9926 10.0898 36.6711 10.0898C36.3787 10.0933 36.091 10.162 35.8295 10.2908C35.6301 10.3825 35.4407 10.4938 35.2643 10.6233L35.2567 14.2152Z" fill="white"/>
<path fill-rule="evenodd" clip-rule="evenodd" d="M25.0111 0H15.0281V4.93839H10.0367V9.87527H15.0281V14.8091H20.0196V19.7475H15.0281V24.6859H89.8971V0H25.0111ZM20.0196 9.87527H25.0111V4.93839H20.0196V9.87527ZM35.2551 8.69809C35.335 8.65427 35.4164 8.61196 35.507 8.56511C35.7168 8.45923 35.9339 8.36784 36.1566 8.2916C36.3887 8.21154 36.6257 8.14593 36.8662 8.09515C37.0993 8.04474 37.3371 8.01891 37.5758 8.01808C38.4409 8.01808 39.1019 8.27497 39.5585 8.78876C40.0152 9.30255 40.242 10.0737 40.2389 11.1023V13.6214C40.2389 14.6147 40.0136 15.3773 39.5631 15.9092C39.1126 16.4411 38.3913 16.7066 37.3991 16.7056C37.0259 16.704 36.6531 16.6813 36.2826 16.6376C35.9359 16.6008 35.5918 16.5437 35.252 16.4668V20.2492H32.7578V8.19035H35.2505L35.2551 8.69809ZM46.6894 16.5333L45.1996 14.2198L43.7099 16.5333H41.1957L43.8804 12.3354L41.2694 8.18884H43.7268L45.1981 10.4676L46.671 8.18884H49.1283L46.5174 12.3354L49.202 16.5333H46.6894ZM53.08 16.5333H50.5812V4.44425H53.0754L53.08 16.5333ZM60.452 8.6996C60.5319 8.65578 60.6056 8.61347 60.7039 8.56662C60.9137 8.46061 61.1308 8.36922 61.3536 8.29311C61.5857 8.21309 61.8227 8.14748 62.0631 8.09666C62.2962 8.04628 62.5341 8.02044 62.7727 8.01959C63.6389 8.01959 64.3003 8.27648 64.757 8.79027C65.2136 9.30406 65.4415 10.0752 65.4404 11.1038V13.6214C65.4404 14.6147 65.2152 15.3773 64.7647 15.9092C64.3142 16.4411 63.5923 16.7066 62.5991 16.7056C62.2259 16.704 61.8531 16.6813 61.4826 16.6376C61.136 16.6007 60.7918 16.5437 60.452 16.4668V20.2492H57.9532V8.19035H60.4459L60.452 8.6996ZM69.7515 8.85072L69.985 8.72076C70.177 8.618 70.3751 8.52129 70.5824 8.42911C70.7898 8.33693 70.9986 8.25533 71.206 8.18128C71.4612 8.0928 71.7211 8.01814 71.9846 7.95764V10.3483C71.615 10.4963 71.2167 10.6676 70.7898 10.862C70.4241 11.0209 70.0757 11.2158 69.75 11.4438V16.5318H67.2527V8.19035H69.7454L69.7515 8.85072ZM80.4194 13.3297C80.4211 13.7526 80.3632 14.1737 80.2474 14.5809C80.1312 14.9813 79.9237 15.3503 79.6408 15.6599C79.3173 15.9998 78.9161 16.2588 78.4705 16.4155C77.2591 16.7925 75.959 16.7925 74.7476 16.4155C74.3019 16.2588 73.9007 15.9998 73.5773 15.6599C73.2943 15.3503 73.0869 14.9813 72.9706 14.5809C72.8549 14.1737 72.797 13.7526 72.7986 13.3297V11.394C72.7982 10.9741 72.8561 10.5562 72.9706 10.1518C73.0827 9.75022 73.2865 9.37912 73.5665 9.06681C73.8901 8.727 74.2913 8.46798 74.7369 8.31124C75.9482 7.93435 77.2483 7.93435 78.4597 8.31124C78.9053 8.46798 79.3065 8.727 79.63 9.06681C79.9143 9.37896 80.1219 9.75121 80.2367 10.1548C80.3512 10.5592 80.4091 10.9772 80.4087 11.397L80.4194 13.3297Z" fill="white"/>
<path fill-rule="evenodd" clip-rule="evenodd" d="M76.5876 10.0898C76.1401 10.0898 75.8099 10.1946 75.597 10.4042C75.3706 10.6516 75.2554 10.9786 75.2775 11.3108V13.3735C75.2552 13.7058 75.3704 14.0328 75.597 14.2802C75.8099 14.4908 76.1401 14.5955 76.5876 14.5945C77.035 14.5935 77.3652 14.4888 77.5782 14.2802C77.8047 14.0328 77.92 13.7058 77.8976 13.3735V11.3154C77.9198 10.9831 77.8046 10.6562 77.5782 10.4087C77.3652 10.1991 77.035 10.0944 76.5876 10.0944" fill="white"/>
<path fill-rule="evenodd" clip-rule="evenodd" d="M60.4459 14.2152C60.6261 14.2576 60.8309 14.2943 61.0603 14.3256C61.3252 14.3639 61.5926 14.3836 61.8604 14.3845C62.183 14.3845 62.4077 14.2984 62.5347 14.1261C62.6691 13.932 62.7365 13.7004 62.7266 13.4657V11.0086C62.7414 10.7682 62.6738 10.5298 62.5347 10.3316C62.4067 10.1704 62.1819 10.0898 61.8604 10.0898C61.568 10.0933 61.2803 10.162 61.0188 10.2908C60.8194 10.3825 60.63 10.4938 60.4536 10.6233L60.4459 14.2152Z" fill="white"/>
</svg>
