<svg width="16" height="16" viewBox="0 0 16 16" fill="none" xmlns="http://www.w3.org/2000/svg">
<path id="Page 1" fill-rule="evenodd" clip-rule="evenodd" d="M16 15.0417L15.0417 16L10.3333 11.2917C9.19444 12.2083 7.86112 12.6667 6.33333 12.6667C4.58333 12.6667 3.09028 12.0486 1.85417 10.8125C0.618049 9.57638 0 8.08334 0 6.33333C0 4.58333 0.618049 3.09028 1.85417 1.85417C3.09028 0.618051 4.58333 0 6.33333 0C8.08334 0 9.57638 0.618051 10.8125 1.85417C12.0486 3.09028 12.6667 4.58333 12.6667 6.33333C12.6667 7.83334 12.2083 9.15277 11.2917 10.2917L16 15.0417ZM2.45207 10.2198C3.49852 11.2663 4.78643 11.7895 6.31585 11.7895C7.81843 11.7895 9.10635 11.2528 10.1796 10.1796C11.2529 9.10629 11.7895 7.81838 11.7895 6.31579C11.7895 4.8132 11.2529 3.52529 10.1796 2.45201C9.10635 1.37874 7.81843 0.842105 6.31585 0.842105C4.81326 0.842105 3.52535 1.37874 2.45207 2.45201C1.37879 3.52529 0.842163 4.8132 0.842163 6.31579C0.842163 7.84521 1.37879 9.14654 2.45207 10.2198Z" fill="white"/>
</svg>
